<svg xmlns="http://www.w3.org/2000/svg" xmlns:xlink="http://www.w3.org/1999/xlink" version="1.1" width="256" height="256" viewBox="0 0 256 256" xml:space="preserve">

<defs>
</defs>
<g style="stroke: none; stroke-width: 0; stroke-dasharray: none; stroke-linecap: butt; stroke-linejoin: miter; stroke-miterlimit: 10; fill: none; fill-rule: nonzero; opacity: 1;" transform="translate(1.4065934065934016 1.4065934065934016) scale(2.81 2.81)" >
	<path d="M 42.996 31.415 c 0 -11.039 3.982 -21.142 10.579 -28.969 c 0.803 -0.953 0.161 -2.394 -1.084 -2.429 C 52.094 0.006 51.697 0 51.298 0 c -24.88 0 -45.044 20.192 -45 45.082 c 0.043 23.897 19.185 43.873 43.06 44.877 c 12.385 0.521 23.713 -3.974 32.139 -11.613 c 0.91 -0.825 0.428 -2.327 -0.785 -2.524 C 59.324 72.341 42.996 53.787 42.996 31.415 z" style="stroke: none; stroke-width: 1; stroke-dasharray: none; stroke-linecap: butt; stroke-linejoin: miter; stroke-miterlimit: 10; fill: rgb(239,226,58); fill-rule: nonzero; opacity: 1;" transform=" matrix(1 0 0 1 0 0) " stroke-linecap="round" />
</g>
</svg>