<svg xmlns="http://www.w3.org/2000/svg" xmlns:xlink="http://www.w3.org/1999/xlink" version="1.1" width="256" height="256" viewBox="0 0 256 256" xml:space="preserve">

<defs>
</defs>
<g style="stroke: none; stroke-width: 0; stroke-dasharray: none; stroke-linecap: butt; stroke-linejoin: miter; stroke-miterlimit: 10; fill: none; fill-rule: nonzero; opacity: 1;" transform="translate(1.4065934065934016 1.4065934065934016) scale(2.81 2.81)" >
	<path d="M 83.833 90 H 6.167 C 2.761 90 0 87.239 0 83.833 V 6.167 C 0 2.761 2.761 0 6.167 0 h 77.667 C 87.239 0 90 2.761 90 6.167 v 77.667 C 90 87.239 87.239 90 83.833 90 z" style="stroke: none; stroke-width: 1; stroke-dasharray: none; stroke-linecap: butt; stroke-linejoin: miter; stroke-miterlimit: 10; fill: rgb(68, 138, 218); fill-rule: nonzero; opacity: 1;" transform=" matrix(1 0 0 1 0 0) " stroke-linecap="round" />
	<path d="M 67.893 63.65 l -8.995 -6.706 c -1.357 -1.011 -3.182 -1.127 -4.655 -0.294 l -2.613 1.477 c -1.253 0.708 -2.788 0.755 -4.059 0.079 c -6.864 -3.654 -12.123 -8.913 -15.777 -15.777 c -0.676 -1.271 -0.63 -2.806 0.079 -4.059 l 1.477 -2.613 c 0.833 -1.473 0.717 -3.299 -0.294 -4.655 l -6.706 -8.995 c -1.897 -2.545 -5.809 -2.205 -7.239 0.629 l -3.006 5.959 c -1.405 2.785 -1.482 6.068 -0.164 8.894 c 7.733 16.58 19.889 28.736 36.469 36.469 c 2.827 1.318 6.109 1.241 8.894 -0.164 l 5.959 -3.006 C 70.098 69.459 70.438 65.547 67.893 63.65 z" style="stroke: none; stroke-width: 1; stroke-dasharray: none; stroke-linecap: butt; stroke-linejoin: miter; stroke-miterlimit: 10; fill: rgb(255,255,255); fill-rule: nonzero; opacity: 1;" transform=" matrix(1 0 0 1 0 0) " stroke-linecap="round" />
	<path d="M 42.306 15 c -1.505 0 -2.724 1.22 -2.724 2.724 s 1.22 2.725 2.724 2.725 c 15.023 0 27.245 12.222 27.245 27.245 c 0 1.505 1.22 2.725 2.724 2.725 c 1.505 0 2.725 -1.22 2.725 -2.725 C 75 29.667 60.333 15 42.306 15 z" style="stroke: none; stroke-width: 1; stroke-dasharray: none; stroke-linecap: butt; stroke-linejoin: miter; stroke-miterlimit: 10; fill: rgb(255,255,255); fill-rule: nonzero; opacity: 1;" transform=" matrix(1 0 0 1 0 0) " stroke-linecap="round" />
	<path d="M 58.653 47.694 c 0 1.505 1.22 2.725 2.724 2.725 s 2.725 -1.22 2.725 -2.725 c 0 -12.018 -9.777 -21.796 -21.796 -21.796 c -1.505 0 -2.724 1.22 -2.724 2.724 c 0 1.505 1.22 2.725 2.724 2.725 C 51.32 31.347 58.653 38.68 58.653 47.694 z" style="stroke: none; stroke-width: 1; stroke-dasharray: none; stroke-linecap: butt; stroke-linejoin: miter; stroke-miterlimit: 10; fill: rgb(255,255,255); fill-rule: nonzero; opacity: 1;" transform=" matrix(1 0 0 1 0 0) " stroke-linecap="round" />
</g>
</svg>